<svg width="818" height="720" viewBox="0 0 818 720" fill="none" xmlns="http://www.w3.org/2000/svg">
<circle cx="413" cy="31" r="312" fill="url(#paint0_radial_184_46)" fill-opacity="0.2"/>
<circle cx="411.5" cy="290.5" r="222.5" fill="url(#paint1_linear_184_46)"/>
<path d="M409 193C409 193 467.149 409.554 553.632 518.5C634.963 620.955 817.764 724.5 817.764 724.5H0.236023C0.236023 724.5 183.037 620.955 264.368 518.5C350.852 409.554 409 193 409 193Z" fill="url(#paint2_linear_184_46)"/>
<path d="M471.6 406.407C461.788 406.407 452.93 402.655 447.282 396.126C447.217 396.052 447.153 395.978 447.098 395.905C440.377 402.526 430.748 406.407 420.79 406.407C410.831 406.407 402.12 402.655 396.471 396.126C396.407 396.052 396.343 395.978 396.288 395.905C389.566 402.526 379.938 406.407 369.979 406.407C362.909 406.407 356.334 404.476 351.08 400.917L350.31 406.407H314.455L317.839 382.203H313.841C304.488 382.203 299.197 378.368 296.409 375.159C292.292 370.414 290.742 364.105 291.806 356.39L293.163 346.55C293.942 340.895 296.024 336.002 299.215 332.241C297.592 331.037 296.134 329.685 294.85 328.213C290.054 322.659 287.982 315.606 289.027 308.35L289.055 308.185L289.101 308.019C289.816 305.628 291.622 298.75 291.43 295.706C291.301 293.683 291.402 291.512 291.742 289.259L292.585 282.896C293.493 276.578 296.712 270.684 301.746 265.966C299.105 264.403 296.794 262.49 294.859 260.246C290.063 254.692 287.991 247.648 289.027 240.41L292.576 214.974C294.74 199.893 310.072 188.085 327.468 188.085H530.7C540.512 188.085 549.37 191.837 555.019 198.367C559.815 203.921 561.887 210.965 560.851 218.202C559.842 225.458 555.615 232.346 549.169 237.302L553.653 255.768C553.974 256.963 554.597 257.441 555.312 257.993C556.092 258.6 557.55 259.722 557.256 261.791L553.689 287.365C553.341 289.857 551.186 291.733 548.673 291.733H545.07C544.831 291.733 544.629 291.908 544.602 292.138L543.135 302.161C543.107 302.345 543.181 302.465 543.245 302.548C543.309 302.621 543.428 302.713 543.602 302.713H545.721C547.188 302.713 548.582 303.348 549.545 304.46C550.507 305.573 550.938 307.035 550.737 308.497L547.17 334.071C546.821 336.563 544.666 338.439 542.154 338.439H507.161C509.811 343.157 510.82 348.564 510.031 354.054L506.483 379.49C504.319 394.571 488.986 406.379 471.591 406.379L471.6 406.407Z" fill="black"/>
<path d="M530.71 190.394C539.852 190.394 548.087 193.852 553.295 199.884C557.651 204.933 559.531 211.324 558.586 217.89C557.577 225.136 553.176 231.758 546.583 236.365L551.434 256.329C552.406 259.934 555.239 259.824 555.001 261.497L551.434 287.071C551.241 288.441 550.076 289.462 548.692 289.462H545.088C543.712 289.462 542.548 290.474 542.346 291.835L540.879 301.858C540.631 303.532 541.934 305.04 543.621 305.04H545.739C547.417 305.04 548.719 306.53 548.481 308.204L544.914 333.778C544.721 335.148 543.557 336.168 542.172 336.168H502.833C506.941 341.143 508.702 347.369 507.785 353.76L504.236 379.206C502.228 393.193 487.895 404.108 471.609 404.108C462.467 404.108 454.232 400.65 449.024 394.618C448.391 393.891 447.823 393.128 447.291 392.337C441.211 399.455 431.418 404.099 420.799 404.099C411.657 404.099 403.422 400.641 398.213 394.609C397.581 393.882 397.012 393.119 396.48 392.328C390.401 399.446 380.607 404.099 369.988 404.099C361.919 404.099 354.565 401.405 349.374 396.632L348.329 404.099H317.105L320.489 379.895H313.85C305.368 379.895 300.627 376.493 298.142 373.633C294.483 369.412 293.117 363.72 294.089 356.694L295.446 346.845C296.326 340.481 298.885 335.387 302.782 331.837C300.435 330.43 298.344 328.711 296.592 326.687C292.237 321.648 290.357 315.238 291.301 308.663C291.301 308.663 293.979 299.67 293.722 295.55C293.603 293.683 293.704 291.697 294.006 289.582L294.859 283.181C295.868 276.192 299.967 269.958 305.863 265.479C302.241 263.87 299.077 261.589 296.602 258.72C292.246 253.672 290.366 247.28 291.311 240.714L294.859 215.269C296.867 201.291 311.191 190.367 327.486 190.367H530.719M530.719 185.769H327.477C308.963 185.769 292.64 198.441 290.311 214.616L286.753 240.08C285.616 247.97 287.881 255.667 293.126 261.736C294.603 263.447 296.281 264.983 298.142 266.334C293.887 271.024 291.164 276.606 290.311 282.528V282.574L289.458 288.938C289.11 291.338 289 293.665 289.137 295.835C289.284 298.106 287.918 303.937 286.9 307.339L286.799 307.661L286.753 307.992C285.616 315.919 287.872 323.625 293.117 329.685C294.006 330.715 294.978 331.681 296.024 332.591C293.365 336.38 291.622 340.996 290.898 346.201L289.541 356.05C288.376 364.446 290.109 371.371 294.685 376.64C297.794 380.217 303.635 384.475 313.85 384.475H315.216L312.557 403.446L311.824 408.688H352.309L352.859 404.724V404.642C357.902 407.281 363.762 408.688 369.979 408.688C379.699 408.688 389.135 405.184 396.15 399.133C402.239 405.23 411.088 408.688 420.79 408.688C430.492 408.688 439.946 405.184 446.961 399.133C453.05 405.23 461.898 408.688 471.6 408.688C490.114 408.688 506.437 396.016 508.766 379.84L512.324 354.376C513.002 349.677 512.461 345.024 510.792 340.748H542.163C545.812 340.748 548.939 338.017 549.444 334.394L553.011 308.82C553.304 306.705 552.671 304.571 551.278 302.953C549.884 301.334 547.857 300.415 545.73 300.415H545.712L546.647 294.033H548.683C552.332 294.033 555.459 291.301 555.964 287.678L559.531 262.104C560.007 258.711 557.614 256.863 556.715 256.164C556.119 255.704 555.991 255.603 555.863 255.143L551.736 238.167C557.999 232.925 562.089 225.909 563.125 218.497C564.262 210.616 561.997 202.919 556.752 196.85C550.672 189.815 541.182 185.778 530.7 185.778L530.719 185.769Z" fill="black"/>
<path d="M306.688 216.575C308.046 207.149 318.463 199.59 330.228 199.59H351.401L349.622 212.326H328.449C323.708 212.326 319.728 214.193 319.389 216.575L315.831 242.057C315.492 244.439 318.967 246.305 323.708 246.305H344.881L343.102 259.042H321.929C310.155 259.042 301.773 251.483 303.131 242.057L306.688 216.575Z" fill="white"/>
<path d="M358.948 199.59H371.648L370.465 208.078C370.126 210.459 373.601 212.326 378.342 212.326C383.083 212.326 387.063 210.459 387.402 208.078L388.585 199.59H401.285L400.102 208.078C399.002 215.72 391.969 222.175 382.991 224.299L378.168 259.033H365.468L370.291 224.299C361.992 222.175 356.655 215.72 357.756 208.078L358.939 199.59H358.948Z" fill="white"/>
<path d="M407.924 199.59H429.098C440.872 199.59 448.859 206.183 447.896 215.655C446.933 225.127 442.559 226.828 434.004 226.828L435.187 216.575C435.526 214.202 432.05 212.326 427.31 212.326H418.837L417.058 225.063H433.994C442.467 225.063 446.108 229.311 444.916 237.799L444.32 242.048C442.963 251.473 432.546 259.032 420.781 259.032H399.607L407.906 199.581L407.924 199.59ZM422.578 246.296C427.319 246.296 431.298 244.429 431.638 242.048L432.234 237.799H415.297L414.114 246.296H422.578Z" fill="white"/>
<path d="M458.735 199.59H496.845L495.066 212.326H469.656L468.217 222.948H485.153L483.292 235.684H466.355L464.915 246.305H490.316L488.537 259.042H450.427L458.726 199.59H458.735Z" fill="white"/>
<path d="M505.309 199.59H530.719C542.493 199.59 550.874 207.149 549.517 216.575C548.582 223.288 543.08 228.971 535.716 231.776L543.593 259.032H530.893L523.52 233.55H513.277L509.72 259.032H497.019L505.318 199.581L505.309 199.59ZM527.748 220.823C532.488 220.823 536.468 218.956 536.807 216.575C537.147 214.202 533.671 212.326 528.931 212.326H516.23L515.047 220.823H527.748Z" fill="white"/>
<path d="M313.08 309.987C312.741 312.369 316.216 314.235 320.957 314.235C325.698 314.235 329.677 312.369 330.017 309.987L330.86 303.614H313.923C305.46 303.614 301.81 299.366 303.085 290.878L303.928 284.505C305.285 275.079 315.611 267.52 327.467 267.52C339.324 267.52 347.623 275.079 346.266 284.505H333.565C333.905 282.132 330.429 280.256 325.688 280.256C320.948 280.256 316.968 282.123 316.629 284.505L315.785 290.878H332.722C341.186 290.878 344.835 295.126 343.561 303.614L342.717 309.987C341.36 319.413 331.035 326.972 319.178 326.972C307.321 326.972 299.022 319.413 300.38 309.987H313.08Z" fill="white"/>
<path d="M357.114 267.53H369.814L367.192 286.556C378.37 286.556 384.55 282.988 385.568 276.027C386.247 270.427 390.905 267.539 399.461 267.539L398.278 276.027C397.26 283.42 394.215 289.021 389.135 292.929C393.115 296.837 394.555 302.438 393.537 309.831L391.162 326.991H378.461L380.836 309.831C381.772 302.87 376.6 299.302 365.422 299.302L361.525 326.991H348.824L357.123 267.539L357.114 267.53Z" fill="white"/>
<path d="M405.549 284.515C406.907 275.089 417.324 267.53 429.089 267.53C440.854 267.53 449.244 275.089 447.887 284.515L441.954 326.982H429.254L432.472 303.624H415.535L412.317 326.982H399.616L405.549 284.515ZM434.343 290.888L435.187 284.515C435.526 282.142 432.05 280.266 427.31 280.266C421.551 280.266 418.589 282.133 418.25 284.515L417.406 290.888H434.343Z" fill="white"/>
<path d="M455.067 267.53H497.414L495.635 280.266H480.816L474.296 326.972H461.596L468.116 280.266H453.297L455.076 267.53H455.067Z" fill="white"/>
<path d="M504.951 267.53H543.061L541.282 280.266H515.873L514.433 290.888H531.37L529.508 303.624H512.571L511.132 314.245H536.532L534.753 326.982H496.643L504.942 267.53H504.951Z" fill="white"/>
<path d="M304.524 348.123C305.707 339.543 310.622 335.294 319.004 335.386L315.868 357.981H332.804L335.94 335.478H348.641L340.342 394.93H327.642L331.025 370.726H314.089C305.707 370.809 301.975 366.561 303.167 357.99L304.524 348.141V348.123Z" fill="white"/>
<path d="M351.19 377.927L354.748 352.445C356.105 343.019 366.522 335.46 378.287 335.46C390.052 335.46 398.443 343.019 397.086 352.445L393.528 377.927C392.17 387.353 381.753 394.912 369.988 394.912C358.223 394.912 349.833 387.353 351.19 377.927ZM380.827 377.927L384.385 352.445C384.724 350.072 381.249 348.196 376.508 348.196C371.767 348.196 367.788 350.063 367.448 352.445L363.89 377.927C363.551 380.309 367.027 382.175 371.767 382.175C376.508 382.175 380.488 380.309 380.827 377.927ZM367.788 365.19C368.292 361.705 371.602 358.818 375.069 358.818C378.535 358.818 380.992 361.705 380.488 365.19C379.984 368.759 376.765 371.563 373.207 371.563C369.649 371.563 367.283 368.759 367.788 365.19Z" fill="white"/>
<path d="M401.991 377.927L405.549 352.445C406.906 343.019 417.324 335.46 429.089 335.46C440.854 335.46 449.244 343.019 447.887 352.445L444.329 377.927C442.972 387.353 432.555 394.912 420.79 394.912C409.025 394.912 400.634 387.353 401.991 377.927ZM431.629 377.927L435.187 352.445C435.526 350.072 432.05 348.196 427.31 348.196C422.569 348.196 418.589 350.063 418.25 352.445L414.692 377.927C414.352 380.309 417.828 382.175 422.569 382.175C427.31 382.175 431.289 380.309 431.629 377.927ZM418.589 365.19C419.093 361.705 422.404 358.818 425.87 358.818C429.336 358.818 431.794 361.705 431.289 365.19C430.785 368.759 427.566 371.563 424.008 371.563C420.45 371.563 418.085 368.759 418.589 365.19Z" fill="white"/>
<path d="M452.802 377.927L456.36 352.445C457.717 343.019 468.134 335.46 479.899 335.46C491.664 335.46 500.054 343.019 498.697 352.445L495.139 377.927C493.782 387.353 483.365 394.912 471.6 394.912C459.835 394.912 451.445 387.353 452.802 377.927ZM482.439 377.927L485.997 352.445C486.336 350.072 482.861 348.196 478.12 348.196C473.379 348.196 469.399 350.063 469.06 352.445L465.502 377.927C465.163 380.309 468.638 382.175 473.379 382.175C478.12 382.175 482.1 380.309 482.439 377.927ZM469.399 365.19C469.904 361.705 473.214 358.818 476.68 358.818C480.147 358.818 482.604 361.705 482.1 365.19C481.595 368.759 478.377 371.563 474.819 371.563C471.261 371.563 468.895 368.759 469.399 365.19Z" fill="white"/>
<path d="M254.796 329.146L259.097 340.806L270.724 345.119C272.329 345.717 272.329 347.988 270.724 348.586L259.097 352.899L254.796 364.56C254.2 366.169 251.935 366.169 251.339 364.56L247.038 352.899L235.411 348.586C233.806 347.988 233.806 345.717 235.411 345.119L247.038 340.806L251.339 329.146C251.935 327.537 254.2 327.537 254.796 329.146Z" fill="white"/>
<path d="M253.072 368.992C250.935 368.992 249.074 367.695 248.331 365.681L244.544 355.41L234.301 351.612C232.293 350.867 231 349 231 346.857C231 344.715 232.293 342.848 234.301 342.103L244.544 338.305L248.331 328.033C249.074 326.028 250.935 324.723 253.072 324.723C255.209 324.723 257.07 326.019 257.813 328.033L261.6 338.305L271.843 342.103C273.851 342.848 275.144 344.715 275.144 346.857C275.144 349 273.851 350.867 271.843 351.612L261.6 355.41L257.813 365.681C257.07 367.686 255.209 368.992 253.072 368.992ZM239.996 346.857L249.542 350.398L253.072 359.971L256.602 350.398L266.148 346.857L256.602 343.317L253.072 333.744L249.542 343.317L239.996 346.857Z" fill="black"/>
<path d="M272.09 362.877L275.245 371.42L283.764 374.583C284.937 375.016 284.937 376.689 283.764 377.121L275.245 380.285L272.09 388.828C271.659 390.005 269.99 390.005 269.559 388.828L266.405 380.285L257.886 377.121C256.712 376.689 256.712 375.016 257.886 374.583L266.405 371.42L269.559 362.877C269.99 361.7 271.659 361.7 272.09 362.877Z" fill="white"/>
<path d="M270.825 392.929C268.899 392.929 267.221 391.761 266.552 389.941L263.911 382.786L256.777 380.138C254.97 379.466 253.796 377.783 253.796 375.852C253.796 373.921 254.961 372.238 256.777 371.567L263.911 368.919L266.552 361.764C267.221 359.952 268.899 358.775 270.825 358.775C272.751 358.775 274.429 359.943 275.098 361.764L277.739 368.919L284.873 371.567C286.68 372.238 287.853 373.921 287.853 375.852C287.853 377.783 286.689 379.466 284.873 380.138L277.739 382.786L275.098 389.941C274.429 391.752 272.751 392.929 270.825 392.929ZM263.718 375.852L268.908 377.774L270.825 382.979L272.741 377.774L277.932 375.852L272.741 373.93L270.825 368.725L268.908 373.93L263.718 375.852Z" fill="black"/>
<path d="M516.065 154.102L519.201 162.608L527.683 165.753C528.848 166.185 528.848 167.84 527.683 168.282L519.201 171.427L516.065 179.933C515.634 181.101 513.984 181.101 513.543 179.933L510.407 171.427L501.925 168.282C500.761 167.849 500.761 166.194 501.925 165.753L510.407 162.608L513.543 154.102C513.974 152.934 515.625 152.934 516.065 154.102Z" fill="white"/>
<path d="M514.809 184.025C512.883 184.025 511.205 182.857 510.536 181.046L507.913 173.928L500.816 171.298C499.009 170.627 497.845 168.944 497.845 167.013C497.845 165.081 499.009 163.399 500.816 162.727L507.913 160.097L510.536 152.979C511.205 151.168 512.883 150 514.809 150C516.735 150 518.413 151.168 519.082 152.979L521.705 160.097L528.802 162.727C530.609 163.399 531.773 165.081 531.773 167.013C531.773 168.944 530.609 170.627 528.802 171.298L521.705 173.928L519.082 181.046C518.413 182.857 516.735 184.025 514.809 184.025ZM507.776 167.013L512.911 168.916L514.809 174.066L516.707 168.916L521.842 167.013L516.707 165.109L514.809 159.959L512.911 165.109L507.776 167.013Z" fill="black"/>
<defs>
<radialGradient id="paint0_radial_184_46" cx="0" cy="0" r="1" gradientUnits="userSpaceOnUse" gradientTransform="translate(413 31) rotate(90) scale(312)">
<stop offset="0.666667" stop-color="white" stop-opacity="0"/>
<stop offset="1" stop-color="white"/>
</radialGradient>
<linearGradient id="paint1_linear_184_46" x1="411.5" y1="68" x2="411.5" y2="513" gradientUnits="userSpaceOnUse">
<stop stop-color="#FBDC79"/>
<stop offset="0.463542" stop-color="#F16234"/>
<stop offset="1" stop-color="#B229C6"/>
</linearGradient>
<linearGradient id="paint2_linear_184_46" x1="409" y1="193" x2="409" y2="830.999" gradientUnits="userSpaceOnUse">
<stop stop-color="#471F56"/>
<stop offset="1"/>
</linearGradient>
</defs>
</svg>
