<svg width="818" height="1006" viewBox="0 0 818 1006" fill="none" xmlns="http://www.w3.org/2000/svg">
<circle cx="412.764" cy="312" r="312" fill="url(#paint0_radial_184_45)" fill-opacity="0.2"/>
<circle cx="411.264" cy="571.5" r="222.5" fill="url(#paint1_linear_184_45)"/>
<path d="M408.764 474C408.764 474 466.912 690.554 553.396 799.5C634.727 901.955 817.528 1005.5 817.528 1005.5H-6.10352e-05C-6.10352e-05 1005.5 182.801 901.955 264.132 799.5C350.615 690.554 408.764 474 408.764 474Z" fill="url(#paint2_linear_184_45)"/>
<path d="M471.364 687.407C461.552 687.407 452.694 683.655 447.046 677.126C446.981 677.052 446.917 676.978 446.862 676.905C440.141 683.526 430.512 687.407 420.554 687.407C410.595 687.407 401.884 683.655 396.235 677.126C396.171 677.052 396.107 676.978 396.052 676.905C389.33 683.526 379.702 687.407 369.743 687.407C362.673 687.407 356.098 685.476 350.844 681.917L350.074 687.407H314.219L317.603 663.203H313.605C304.252 663.203 298.961 659.368 296.173 656.159C292.056 651.414 290.506 645.105 291.57 637.39L292.927 627.55C293.706 621.895 295.788 617.002 298.979 613.241C297.356 612.037 295.898 610.685 294.614 609.213C289.818 603.659 287.746 596.606 288.791 589.35L288.819 589.185L288.864 589.019C289.58 586.628 291.386 579.75 291.194 576.706C291.065 574.683 291.166 572.512 291.505 570.259L292.349 563.896C293.257 557.578 296.476 551.684 301.51 546.966C298.869 545.403 296.558 543.49 294.623 541.246C289.827 535.692 287.755 528.648 288.791 521.41L292.34 495.974C294.504 480.893 309.836 469.085 327.231 469.085H530.464C540.276 469.085 549.134 472.837 554.783 479.367C559.579 484.921 561.651 491.965 560.615 499.202C559.606 506.458 555.379 513.346 548.933 518.302L553.417 536.768C553.738 537.963 554.361 538.441 555.076 538.993C555.856 539.6 557.314 540.722 557.02 542.791L553.453 568.365C553.105 570.857 550.95 572.733 548.437 572.733H544.834C544.595 572.733 544.393 572.908 544.366 573.138L542.899 583.161C542.871 583.345 542.945 583.465 543.009 583.548C543.073 583.621 543.192 583.713 543.366 583.713H545.485C546.952 583.713 548.346 584.348 549.308 585.46C550.271 586.573 550.702 588.035 550.501 589.497L546.933 615.071C546.585 617.563 544.43 619.439 541.918 619.439H506.925C509.575 624.157 510.584 629.564 509.795 635.054L506.247 660.49C504.082 675.571 488.75 687.379 471.355 687.379L471.364 687.407Z" fill="black"/>
<path d="M530.473 471.394C539.616 471.394 547.85 474.852 553.059 480.884C557.415 485.933 559.294 492.324 558.35 498.89C557.341 506.136 552.94 512.758 546.347 517.365L551.197 537.329C552.169 540.934 555.003 540.824 554.765 542.497L551.197 568.071C551.005 569.441 549.84 570.462 548.456 570.462H544.852C543.476 570.462 542.312 571.474 542.11 572.835L540.643 582.858C540.395 584.532 541.697 586.04 543.385 586.04H545.503C547.181 586.04 548.483 587.53 548.245 589.204L544.678 614.778C544.485 616.148 543.321 617.168 541.936 617.168H502.597C506.705 622.143 508.466 628.369 507.549 634.76L504 660.206C501.992 674.193 487.659 685.108 471.373 685.108C462.231 685.108 453.996 681.651 448.788 675.618C448.155 674.891 447.587 674.128 447.055 673.337C440.975 680.455 431.182 685.099 420.563 685.099C411.42 685.099 403.186 681.641 397.977 675.609C397.345 674.882 396.776 674.119 396.244 673.328C390.165 680.446 380.371 685.099 369.752 685.099C361.683 685.099 354.329 682.405 349.138 677.632L348.093 685.099H316.869L320.253 660.895H313.614C305.132 660.895 300.391 657.493 297.906 654.633C294.247 650.412 292.881 644.72 293.853 637.694L295.21 627.845C296.09 621.481 298.649 616.387 302.546 612.837C300.198 611.43 298.108 609.711 296.356 607.687C292.001 602.648 290.121 596.238 291.065 589.663C291.065 589.663 293.743 580.67 293.486 576.55C293.367 574.683 293.468 572.697 293.77 570.582L294.623 564.181C295.632 557.192 299.731 550.958 305.627 546.479C302.005 544.87 298.841 542.589 296.365 539.72C292.01 534.672 290.13 528.28 291.074 521.714L294.623 496.269C296.631 482.291 310.955 471.367 327.25 471.367H530.483M530.483 466.769H327.241C308.727 466.769 292.404 479.441 290.075 495.616L286.517 521.08C285.38 528.97 287.645 536.667 292.89 542.736C294.366 544.447 296.045 545.983 297.906 547.334C293.651 552.024 290.928 557.606 290.075 563.528V563.574L289.222 569.938C288.874 572.338 288.764 574.665 288.901 576.835C289.048 579.106 287.682 584.937 286.664 588.339L286.563 588.661L286.517 588.992C285.38 596.919 287.636 604.625 292.881 610.685C293.77 611.715 294.742 612.681 295.788 613.591C293.128 617.38 291.386 621.996 290.662 627.201L289.305 637.05C288.14 645.446 289.873 652.371 294.449 657.64C297.558 661.217 303.399 665.475 313.614 665.475H314.98L312.321 684.446L311.588 689.688H352.073L352.623 685.724V685.642C357.666 688.281 363.526 689.688 369.743 689.688C379.463 689.688 388.899 686.184 395.914 680.133C402.003 686.23 410.852 689.688 420.554 689.688C430.255 689.688 439.71 686.184 446.725 680.133C452.813 686.23 461.662 689.688 471.364 689.688C489.878 689.688 506.201 677.016 508.53 660.84L512.088 635.376C512.766 630.677 512.225 626.024 510.556 621.748H541.927C545.576 621.748 548.703 619.017 549.208 615.394L552.775 589.82C553.068 587.705 552.435 585.571 551.042 583.953C549.648 582.334 547.621 581.415 545.494 581.415H545.475L546.411 575.033H548.446C552.096 575.033 555.223 572.301 555.727 568.678L559.294 543.104C559.771 539.711 557.378 537.863 556.479 537.164C555.883 536.704 555.755 536.603 555.627 536.143L551.5 519.167C557.763 513.925 561.853 506.909 562.889 499.497C564.026 491.616 561.761 483.919 556.516 477.85C550.436 470.815 540.945 466.778 530.464 466.778L530.483 466.769Z" fill="black"/>
<path d="M306.452 497.575C307.81 488.149 318.227 480.59 329.992 480.59H351.165L349.386 493.326H328.213C323.472 493.326 319.492 495.193 319.153 497.575L315.595 523.057C315.255 525.439 318.731 527.305 323.472 527.305H344.645L342.866 540.042H321.693C309.919 540.042 301.537 532.483 302.894 523.057L306.452 497.575V497.575Z" fill="white"/>
<path d="M358.712 480.59H371.412L370.229 489.078C369.89 491.459 373.365 493.326 378.106 493.326C382.847 493.326 386.827 491.459 387.166 489.078L388.349 480.59H401.049L399.866 489.078C398.766 496.72 391.733 503.175 382.755 505.299L377.932 540.033H365.232L370.055 505.299C361.756 503.175 356.419 496.72 357.52 489.078L358.703 480.59H358.712Z" fill="white"/>
<path d="M407.688 480.59H428.862C440.636 480.59 448.623 487.183 447.66 496.655C446.697 506.127 442.323 507.828 433.768 507.828L434.95 497.575C435.29 495.202 431.814 493.326 427.073 493.326H418.6L416.822 506.063H433.758C442.231 506.063 445.872 510.311 444.68 518.799L444.084 523.048C442.727 532.473 432.31 540.032 420.545 540.032H399.371L407.67 480.581L407.688 480.59ZM422.342 527.296C427.083 527.296 431.062 525.429 431.402 523.048L431.998 518.799H415.061L413.878 527.296H422.342V527.296Z" fill="white"/>
<path d="M458.499 480.59H496.609L494.83 493.326H469.42L467.98 503.948H484.917L483.056 516.684H466.119L464.679 527.305H490.08L488.301 540.042H450.191L458.49 480.59H458.499Z" fill="white"/>
<path d="M505.073 480.59H530.483C542.257 480.59 550.638 488.149 549.281 497.575C548.346 504.288 542.844 509.971 535.48 512.776L543.357 540.032H530.657L523.284 514.55H513.041L509.483 540.032H496.783L505.082 480.581L505.073 480.59ZM527.512 501.823C532.252 501.823 536.232 499.956 536.571 497.575C536.911 495.202 533.435 493.326 528.694 493.326H515.994L514.811 501.823H527.512V501.823Z" fill="white"/>
<path d="M312.844 590.987C312.504 593.369 315.98 595.235 320.721 595.235C325.462 595.235 329.441 593.369 329.781 590.987L330.624 584.614H313.687C305.224 584.614 301.574 580.366 302.849 571.878L303.692 565.505C305.049 556.079 315.375 548.52 327.231 548.52C339.088 548.52 347.387 556.079 346.03 565.505H333.329C333.669 563.132 330.193 561.256 325.452 561.256C320.712 561.256 316.732 563.123 316.393 565.505L315.549 571.878H332.486C340.95 571.878 344.599 576.126 343.325 584.614L342.481 590.987C341.124 600.413 330.798 607.972 318.942 607.972C307.085 607.972 298.786 600.413 300.143 590.987H312.844V590.987Z" fill="white"/>
<path d="M356.878 548.53H369.578L366.955 567.556C378.134 567.556 384.314 563.988 385.332 557.027C386.011 551.427 390.669 548.539 399.224 548.539L398.041 557.027C397.024 564.42 393.979 570.021 388.899 573.929C392.879 577.837 394.319 583.438 393.301 590.831L390.926 607.991H378.225L380.6 590.831C381.536 583.87 376.364 580.302 365.186 580.302L361.288 607.991H348.588L356.887 548.539L356.878 548.53Z" fill="white"/>
<path d="M405.313 565.515C406.67 556.089 417.087 548.53 428.852 548.53C440.617 548.53 449.008 556.089 447.651 565.515L441.718 607.982H429.018L432.236 584.624H415.299L412.081 607.982H399.38L405.313 565.515ZM434.107 571.888L434.95 565.515C435.29 563.142 431.814 561.266 427.074 561.266C421.315 561.266 418.353 563.133 418.014 565.515L417.17 571.888H434.107Z" fill="white"/>
<path d="M454.831 548.53H497.177L495.398 561.266H480.58L474.06 607.972H461.36L467.88 561.266H453.061L454.84 548.53H454.831Z" fill="white"/>
<path d="M504.715 548.53H542.825L541.046 561.266H515.636L514.197 571.888H531.134L529.272 584.624H512.335L510.896 595.245H536.296L534.517 607.982H496.407L504.706 548.53H504.715Z" fill="white"/>
<path d="M304.288 629.123C305.471 620.543 310.386 616.294 318.768 616.386L315.631 638.981H332.568L335.704 616.478H348.405L340.106 675.93H327.406L330.789 651.726H313.852C305.471 651.809 301.739 647.561 302.931 638.99L304.288 629.141V629.123Z" fill="white"/>
<path d="M350.954 658.927L354.512 633.445C355.869 624.019 366.286 616.46 378.051 616.46C389.816 616.46 398.207 624.019 396.849 633.445L393.292 658.927C391.934 668.353 381.517 675.912 369.752 675.912C357.987 675.912 349.597 668.353 350.954 658.927V658.927ZM380.591 658.927L384.149 633.445C384.488 631.072 381.013 629.196 376.272 629.196C371.531 629.196 367.552 631.063 367.212 633.445L363.654 658.927C363.315 661.309 366.79 663.175 371.531 663.175C376.272 663.175 380.252 661.309 380.591 658.927ZM367.552 646.19C368.056 642.705 371.366 639.818 374.832 639.818C378.299 639.818 380.756 642.705 380.252 646.19C379.748 649.759 376.529 652.563 372.971 652.563C369.413 652.563 367.047 649.759 367.552 646.19Z" fill="white"/>
<path d="M401.755 658.927L405.313 633.445C406.67 624.019 417.087 616.46 428.852 616.46C440.617 616.46 449.008 624.019 447.651 633.445L444.093 658.927C442.736 668.353 432.319 675.912 420.554 675.912C408.789 675.912 400.398 668.353 401.755 658.927V658.927ZM431.392 658.927L434.95 633.445C435.29 631.072 431.814 629.196 427.073 629.196C422.333 629.196 418.353 631.063 418.014 633.445L414.456 658.927C414.116 661.309 417.592 663.175 422.333 663.175C427.073 663.175 431.053 661.309 431.392 658.927ZM418.353 646.19C418.857 642.705 422.168 639.818 425.634 639.818C429.1 639.818 431.558 642.705 431.053 646.19C430.549 649.759 427.33 652.563 423.772 652.563C420.214 652.563 417.849 649.759 418.353 646.19Z" fill="white"/>
<path d="M452.566 658.927L456.124 633.445C457.481 624.019 467.898 616.46 479.663 616.46C491.428 616.46 499.818 624.019 498.461 633.445L494.903 658.927C493.546 668.353 483.129 675.912 471.364 675.912C459.599 675.912 451.209 668.353 452.566 658.927V658.927ZM482.203 658.927L485.761 633.445C486.1 631.072 482.625 629.196 477.884 629.196C473.143 629.196 469.163 631.063 468.824 633.445L465.266 658.927C464.927 661.309 468.402 663.175 473.143 663.175C477.884 663.175 481.864 661.309 482.203 658.927ZM469.163 646.19C469.668 642.705 472.978 639.818 476.444 639.818C479.911 639.818 482.368 642.705 481.864 646.19C481.359 649.759 478.141 652.563 474.583 652.563C471.025 652.563 468.659 649.759 469.163 646.19Z" fill="white"/>
<path d="M254.56 610.146L258.861 621.806L270.488 626.119C272.093 626.717 272.093 628.988 270.488 629.586L258.861 633.899L254.56 645.56C253.964 647.169 251.699 647.169 251.103 645.56L246.802 633.899L235.175 629.586C233.57 628.988 233.57 626.717 235.175 626.119L246.802 621.806L251.103 610.146C251.699 608.537 253.964 608.537 254.56 610.146Z" fill="white"/>
<path d="M252.836 649.992C250.699 649.992 248.838 648.695 248.095 646.681L244.308 636.41L234.065 632.612C232.057 631.867 230.764 630 230.764 627.857C230.764 625.715 232.057 623.848 234.065 623.103L244.308 619.305L248.095 609.033C248.838 607.028 250.699 605.723 252.836 605.723C254.972 605.723 256.834 607.019 257.577 609.033L261.364 619.305L271.607 623.103C273.615 623.848 274.908 625.715 274.908 627.857C274.908 630 273.615 631.867 271.607 632.612L261.364 636.41L257.577 646.681C256.834 648.686 254.972 649.992 252.836 649.992V649.992ZM239.76 627.857L249.305 631.398L252.836 640.971L256.366 631.398L265.912 627.857L256.366 624.317L252.836 614.744L249.305 624.317L239.76 627.857V627.857Z" fill="black"/>
<path d="M271.854 643.877L275.009 652.42L283.528 655.583C284.701 656.016 284.701 657.689 283.528 658.121L275.009 661.285L271.854 669.828C271.423 671.005 269.754 671.005 269.323 669.828L266.169 661.285L257.65 658.121C256.476 657.689 256.476 656.016 257.65 655.583L266.169 652.42L269.323 643.877C269.754 642.7 271.423 642.7 271.854 643.877Z" fill="white"/>
<path d="M270.589 673.929C268.663 673.929 266.985 672.761 266.316 670.941L263.675 663.786L256.541 661.138C254.734 660.466 253.56 658.783 253.56 656.852C253.56 654.921 254.725 653.238 256.541 652.567L263.675 649.919L266.316 642.764C266.985 640.952 268.663 639.775 270.589 639.775C272.515 639.775 274.193 640.943 274.862 642.764L277.503 649.919L284.637 652.567C286.444 653.238 287.617 654.921 287.617 656.852C287.617 658.783 286.453 660.466 284.637 661.138L277.503 663.786L274.862 670.941C274.193 672.752 272.515 673.929 270.589 673.929V673.929ZM263.482 656.852L268.672 658.774L270.589 663.979L272.505 658.774L277.696 656.852L272.505 654.93L270.589 649.725L268.672 654.93L263.482 656.852V656.852Z" fill="black"/>
<path d="M515.829 435.102L518.965 443.608L527.447 446.753C528.612 447.185 528.612 448.84 527.447 449.282L518.965 452.427L515.829 460.933C515.398 462.101 513.748 462.101 513.307 460.933L510.171 452.427L501.689 449.282C500.525 448.849 500.525 447.194 501.689 446.753L510.171 443.608L513.307 435.102C513.738 433.934 515.389 433.934 515.829 435.102V435.102Z" fill="white"/>
<path d="M514.573 465.025C512.647 465.025 510.969 463.857 510.3 462.046L507.677 454.928L500.58 452.298C498.773 451.627 497.609 449.944 497.609 448.013C497.609 446.081 498.773 444.399 500.58 443.727L507.677 441.097L510.3 433.979C510.969 432.168 512.647 431 514.573 431C516.499 431 518.177 432.168 518.846 433.979L521.469 441.097L528.566 443.727C530.373 444.399 531.537 446.081 531.537 448.013C531.537 449.944 530.373 451.627 528.566 452.298L521.469 454.928L518.846 462.046C518.177 463.857 516.499 465.025 514.573 465.025ZM507.54 448.013L512.675 449.916L514.573 455.066L516.471 449.916L521.606 448.013L516.471 446.109L514.573 440.959L512.675 446.109L507.54 448.013Z" fill="black"/>
<defs>
<radialGradient id="paint0_radial_184_45" cx="0" cy="0" r="1" gradientUnits="userSpaceOnUse" gradientTransform="translate(412.764 312) rotate(90) scale(312)">
<stop offset="0.666667" stop-color="white" stop-opacity="0"/>
<stop offset="1" stop-color="white"/>
</radialGradient>
<linearGradient id="paint1_linear_184_45" x1="411.264" y1="349" x2="411.264" y2="794" gradientUnits="userSpaceOnUse">
<stop stop-color="#FBDC79"/>
<stop offset="0.463542" stop-color="#F16234"/>
<stop offset="1" stop-color="#B229C6"/>
</linearGradient>
<linearGradient id="paint2_linear_184_45" x1="408.764" y1="474" x2="408.764" y2="1112" gradientUnits="userSpaceOnUse">
<stop stop-color="#471F56"/>
<stop offset="1"/>
</linearGradient>
</defs>
</svg>
